<svg width="48" height="49" viewBox="0 0 48 49" fill="none" xmlns="http://www.w3.org/2000/svg">
<path fill-rule="evenodd" clip-rule="evenodd" d="M14.1055 0.259478C16.6647 0.14166 17.4807 0.115479 24 0.115479C30.5193 0.115479 31.3353 0.143842 33.8924 0.259478C36.4495 0.375115 38.1949 0.783115 39.7222 1.37439C41.3215 1.97875 42.7724 2.92348 43.9724 4.1453C45.1942 5.34311 46.1367 6.79184 46.7389 8.3933C47.3324 9.92057 47.7382 11.666 47.856 14.2188C47.9738 16.7824 48 17.5984 48 24.1155C48 30.6348 47.9716 31.4508 47.856 34.01C47.7404 36.5628 47.3324 38.3082 46.7389 39.8355C46.1367 41.4371 45.1926 42.8883 43.9724 44.0878C42.7724 45.3097 41.3215 46.2522 39.7222 46.8544C38.1949 47.4478 36.4495 47.8537 33.8967 47.9715C31.3353 48.0893 30.5193 48.1155 24 48.1155C17.4807 48.1155 16.6647 48.0871 14.1055 47.9715C11.5527 47.8558 9.80727 47.4478 8.28 46.8544C6.67837 46.2521 5.22724 45.308 4.02764 44.0878C2.80665 42.8893 1.86178 41.4389 1.25891 39.8377C0.667636 38.3104 0.261818 36.5649 0.144 34.0122C0.0261818 31.4486 0 30.6326 0 24.1155C0 17.5962 0.0283636 16.7802 0.144 14.2231C0.259636 11.666 0.667636 9.92057 1.25891 8.3933C1.86267 6.79202 2.80826 5.34162 4.02982 4.14312C5.22772 2.92239 6.67739 1.97754 8.27782 1.37439C9.80509 0.783115 11.5505 0.377297 14.1033 0.259478H14.1055ZM33.6982 4.57948C31.1673 4.46384 30.408 4.43984 24 4.43984C17.592 4.43984 16.8327 4.46384 14.3018 4.57948C11.9607 4.68639 10.6909 5.07693 9.84436 5.40639C8.72509 5.84275 7.92436 6.35984 7.08436 7.19984C6.2881 7.9745 5.6753 8.91755 5.29091 9.95984C4.96145 10.8064 4.57091 12.0762 4.464 14.4173C4.34836 16.9482 4.32436 17.7075 4.32436 24.1155C4.32436 30.5235 4.34836 31.2828 4.464 33.8137C4.57091 36.1548 4.96145 37.4246 5.29091 38.2711C5.67491 39.3118 6.288 40.2566 7.08436 41.0311C7.85891 41.8275 8.80364 42.4406 9.84436 42.8246C10.6909 43.154 11.9607 43.5446 14.3018 43.6515C16.8327 43.7671 17.5898 43.7911 24 43.7911C30.4102 43.7911 31.1673 43.7671 33.6982 43.6515C36.0393 43.5446 37.3091 43.154 38.1556 42.8246C39.2749 42.3882 40.0756 41.8711 40.9156 41.0311C41.712 40.2566 42.3251 39.3118 42.7091 38.2711C43.0385 37.4246 43.4291 36.1548 43.536 33.8137C43.6516 31.2828 43.6756 30.5235 43.6756 24.1155C43.6756 17.7075 43.6516 16.9482 43.536 14.4173C43.4291 12.0762 43.0385 10.8064 42.7091 9.95984C42.2727 8.84057 41.7556 8.03984 40.9156 7.19984C40.1409 6.40363 39.1979 5.79085 38.1556 5.40639C37.3091 5.07693 36.0393 4.68639 33.6982 4.57948ZM20.9345 31.514C22.6465 32.2267 24.5528 32.3229 26.3278 31.7861C28.1029 31.2494 29.6365 30.1131 30.6668 28.5713C31.6971 27.0294 32.1601 25.1777 31.9768 23.3324C31.7935 21.4871 30.9753 19.7627 29.6618 18.4537C28.8245 17.6169 27.8121 16.9762 26.6975 16.5776C25.5828 16.1791 24.3937 16.0326 23.2156 16.1488C22.0376 16.265 20.9 16.641 19.8847 17.2496C18.8694 17.8582 18.0016 18.6844 17.3439 19.6686C16.6862 20.6528 16.255 21.7707 16.0811 22.9416C15.9073 24.1125 15.9952 25.3074 16.3386 26.4402C16.682 27.5731 17.2723 28.6157 18.067 29.4931C18.8617 30.3704 19.8411 31.0606 20.9345 31.514ZM15.2771 15.3926C16.4226 14.2471 17.7825 13.3384 19.2792 12.7184C20.7759 12.0985 22.38 11.7794 24 11.7794C25.62 11.7794 27.2241 12.0985 28.7208 12.7184C30.2175 13.3384 31.5774 14.2471 32.7229 15.3926C33.8684 16.5381 34.7771 17.898 35.397 19.3947C36.017 20.8914 36.3361 22.4955 36.3361 24.1155C36.3361 25.7355 36.017 27.3396 35.397 28.8363C34.7771 30.333 33.8684 31.6929 32.7229 32.8384C30.4095 35.1518 27.2717 36.4515 24 36.4515C20.7283 36.4515 17.5906 35.1518 15.2771 32.8384C12.9636 30.5249 11.6639 27.3872 11.6639 24.1155C11.6639 20.8438 12.9636 17.706 15.2771 15.3926ZM39.072 13.6166C39.3559 13.3488 39.5831 13.0268 39.7403 12.6696C39.8975 12.3124 39.9814 11.9273 39.9871 11.5371C39.9928 11.147 39.9201 10.7596 39.7734 10.398C39.6267 10.0364 39.4089 9.70787 39.133 9.43193C38.8571 9.15599 38.5286 8.93822 38.167 8.79152C37.8054 8.64481 37.418 8.57215 37.0278 8.57784C36.6376 8.58353 36.2525 8.66745 35.8953 8.82463C35.5382 8.98182 35.2161 9.20907 34.9484 9.49293C34.4276 10.045 34.1425 10.7783 34.1535 11.5371C34.1646 12.296 34.471 13.0207 35.0076 13.5573C35.5443 14.094 36.2689 14.4003 37.0278 14.4114C37.7866 14.4225 38.5199 14.1373 39.072 13.6166Z" fill="#F93F19"/>
</svg>
