<svg width="297" height="61" viewBox="0 0 297 61" fill="none" xmlns="http://www.w3.org/2000/svg">
<path d="M0.84 15.68H11.08V17.664L9.16 23.424H11.72C13.384 19.136 16.456 15.04 24.456 15.04C33.8 15.04 38.472 22.72 38.472 31.872C38.472 41.024 33.8 48.64 24.456 48.64C16.456 48.64 13.384 44.544 11.72 40.256H9.16L11.08 46.016V60.16H0.84V15.68ZM11.08 31.872C11.08 37.376 14.152 39.68 19.656 39.68C25.16 39.68 28.232 37.376 28.232 31.872C28.232 26.368 25.16 24 19.656 24C14.152 24 11.08 26.368 11.08 31.872ZM41.685 31.424C41.685 21.184 48.661 15.04 58.709 15.04C68.757 15.04 75.797 20.992 75.797 30.784V33.984H51.285C51.285 37.696 53.973 40.32 59.797 40.32C63.381 40.32 66.069 39.04 66.709 36.608H76.949C76.309 41.28 70.997 48.64 59.797 48.64C47.381 48.64 41.685 40.576 41.685 31.424ZM51.285 28.224H66.197C66.197 25.792 64.405 23.36 58.709 23.36C53.013 23.36 51.285 25.792 51.285 28.224ZM81.4025 48V20.544C81.4025 17.024 83.3865 15.104 86.9065 15.168L108.091 15.68V24.64L91.6425 24.256V48H81.4025ZM148.317 48H138.077V46.016L139.997 40.256H137.437C135.773 44.544 132.701 48.64 124.701 48.64C115.357 48.64 110.685 40.96 110.685 31.808C110.685 22.656 115.357 15.04 124.701 15.04C132.701 15.04 135.773 19.136 137.437 23.424H139.997L138.077 17.664V0.959999H148.317V48ZM138.077 31.808C138.077 26.368 135.005 24 129.501 24C123.997 24 120.925 26.368 120.925 31.808C120.925 37.248 123.997 39.68 129.501 39.68C135.005 39.68 138.077 37.248 138.077 31.808ZM166.746 12.48C162.97 12.48 160.73 10.688 160.73 7.36C160.73 4.096 162.97 2.24 166.746 2.24C170.522 2.24 172.89 4.096 172.89 7.36C172.89 10.688 170.522 12.48 166.746 12.48ZM153.498 48V39.04H162.65V24.256L154.778 24.64V15.68L166.938 15.04C170.522 14.848 172.506 16.832 172.506 20.416V39.04H181.658V48H153.498ZM221.192 48H210.952V46.016L212.872 40.256H210.312C208.648 44.544 205.576 48.64 197.576 48.64C188.232 48.64 183.56 40.96 183.56 31.808C183.56 22.656 188.232 15.04 197.576 15.04C205.576 15.04 208.648 19.136 210.312 23.424H212.872L210.952 17.664V0.959999H221.192V48ZM210.952 31.808C210.952 26.368 207.88 24 202.376 24C196.872 24 193.8 26.368 193.8 31.808C193.8 37.248 196.872 39.68 202.376 39.68C207.88 39.68 210.952 37.248 210.952 31.808ZM225.06 31.808C225.06 20.544 233.124 15.04 243.3 15.04C253.412 15.04 261.476 20.544 261.476 31.808C261.476 43.136 253.412 48.64 243.3 48.64C233.124 48.64 225.06 43.136 225.06 31.808ZM235.3 31.808C235.3 37.248 238.436 39.68 243.3 39.68C248.1 39.68 251.236 37.248 251.236 31.808C251.236 26.432 248.1 24 243.3 24C238.436 24 235.3 26.432 235.3 31.808ZM296.109 39.104C296.109 44.544 292.205 48.64 281.069 48.64C269.165 48.64 264.045 43.84 264.045 36.288H274.285C274.285 38.784 276.013 40.96 281.389 40.96C284.141 40.96 285.869 40.32 285.869 38.784C285.869 37.12 284.077 36.672 278.893 34.944C272.877 32.96 265.517 31.36 265.517 24.128C265.517 18.368 270.701 15.04 279.597 15.04C290.541 15.04 295.021 20.48 295.021 26.752H284.781C284.781 24.448 283.053 22.72 279.533 22.72C277.101 22.72 275.757 23.296 275.757 24.576C275.757 26.112 278.957 27.072 284.077 28.736C290.349 30.784 296.109 32.384 296.109 39.104Z" fill="#F93F19"/>
</svg>
