<svg width="48" height="49" viewBox="0 0 48 49" fill="none" xmlns="http://www.w3.org/2000/svg">
<path fill-rule="evenodd" clip-rule="evenodd" d="M34.9976 28.9025C34.3987 28.6031 31.4627 27.1602 30.9161 26.9592C30.3694 26.7602 29.9715 26.6618 29.5716 27.2606C29.1737 27.8555 28.0302 29.2019 27.6826 29.5998C27.3329 29.9998 26.9852 30.048 26.3884 29.7506C25.7915 29.4491 23.8663 28.8201 21.5854 26.7864C19.8109 25.2028 18.6111 23.2474 18.2635 22.6486C17.9158 22.0517 18.2253 21.7281 18.5247 21.4307C18.794 21.1634 19.1216 20.7334 19.421 20.3857C19.7204 20.036 19.8189 19.7868 20.0179 19.3869C20.2188 18.989 20.1184 18.6414 19.9676 18.3419C19.8189 18.0425 18.6252 15.1024 18.1268 13.9067C17.6425 12.7431 17.1501 12.9019 16.7844 12.8818C16.4347 12.8657 16.0368 12.8617 15.6389 12.8617C15.241 12.8617 14.5939 13.0104 14.0473 13.6093C13.4986 14.2061 11.9573 15.651 11.9573 18.5911C11.9573 21.5292 14.0955 24.3688 14.3949 24.7687C14.6944 25.1666 18.6051 31.1995 24.5958 33.7859C26.0226 34.4008 27.134 34.7686 28.0001 35.0419C29.431 35.4981 30.7332 35.4338 31.7621 35.279C32.9076 35.1082 35.295 33.8341 35.7934 32.4394C36.2898 31.0448 36.2898 29.849 36.1411 29.5998C35.9924 29.3507 35.5945 29.2019 34.9956 28.9025H34.9976ZM24.1014 43.7798H24.0934C20.5352 43.7804 17.0424 42.8239 13.981 41.0105L13.2575 40.5804L5.73748 42.5539L7.74509 35.2228L7.27283 34.4712C5.28358 31.3047 4.23085 27.64 4.23629 23.9005C4.24031 12.9481 13.151 4.03742 24.1095 4.03742C29.4149 4.03742 34.4028 6.10733 38.1527 9.86131C40.0023 11.7033 41.4683 13.8938 42.4659 16.306C43.4635 18.7182 43.9729 21.3043 43.9646 23.9146C43.9605 34.8671 35.0499 43.7798 24.1014 43.7798V43.7798ZM41.0064 7.00965C38.7922 4.78083 36.1576 3.01359 33.2554 1.81035C30.3533 0.607117 27.2411 -0.00819173 24.0994 8.23495e-05C10.9283 8.23495e-05 0.204982 10.7214 0.200962 23.8985C0.194859 28.0921 1.29495 32.2131 3.39024 35.8458L0 48.2311L12.6687 44.9072C16.1732 46.8165 20.1005 47.817 24.0914 47.8171H24.1014C37.2725 47.8171 47.9959 37.0957 47.9999 23.9166C48.0096 20.7761 47.3965 17.6649 46.1961 14.7629C44.9957 11.8608 43.2318 9.22561 41.0064 7.00965" fill="#FEA900"/>
</svg>
