<svg width="48" height="34" viewBox="0 0 48 34" fill="none" xmlns="http://www.w3.org/2000/svg">
<path d="M19.2 24.3154L31.656 17.1154L19.2 9.91543V24.3154ZM46.944 5.52343C47.256 6.65143 47.472 8.16343 47.616 10.0834C47.784 12.0034 47.856 13.6594 47.856 15.0994L48 17.1154C48 22.3714 47.616 26.2354 46.944 28.7074C46.344 30.8674 44.952 32.2594 42.792 32.8594C41.664 33.1714 39.6 33.3874 36.432 33.5314C33.312 33.6994 30.456 33.7714 27.816 33.7714L24 33.9154C13.944 33.9154 7.68 33.5314 5.208 32.8594C3.048 32.2594 1.656 30.8674 1.056 28.7074C0.744 27.5794 0.528 26.0674 0.384 24.1474C0.216 22.2274 0.144 20.5714 0.144 19.1314L0 17.1154C0 11.8594 0.384 7.99543 1.056 5.52343C1.656 3.36343 3.048 1.97143 5.208 1.37143C6.336 1.05943 8.4 0.843429 11.568 0.699429C14.688 0.531429 17.544 0.45943 20.184 0.45943L24 0.31543C34.056 0.31543 40.32 0.69943 42.792 1.37143C44.952 1.97143 46.344 3.36343 46.944 5.52343Z" fill="#FEA900"/>
</svg>
