<svg width="48" height="37" viewBox="0 0 48 37" fill="none" xmlns="http://www.w3.org/2000/svg">
<path d="M40.1492 1.21246L37.0783 3.6116L24.003 13.3281L10.9277 3.51563L7.85678 1.1165C7.13333 0.518019 6.2502 0.144941 5.31678 0.0434816C4.38337 -0.0579779 3.44071 0.11664 2.60557 0.545702C1.77043 0.974765 1.07952 1.63942 0.618437 2.45731C0.157355 3.27521 -0.0536378 4.21041 0.0115984 5.14705V32.9531C0.0115984 33.8184 0.35536 34.6483 0.967258 35.2602C1.57916 35.8721 2.40907 36.2159 3.27443 36.2159H10.9277V17.6945L24.003 27.507L37.0783 17.6945V36.2159H44.7315C45.5969 36.2159 46.4268 35.8721 47.0387 35.2602C47.6506 34.6483 47.9944 33.8184 47.9944 32.9531V5.14705C48.0394 4.21849 47.8137 3.29684 47.3448 2.49413C46.8759 1.69143 46.1838 1.04223 45.3528 0.625466C44.5218 0.208697 43.5877 0.0423043 42.6639 0.146512C41.7401 0.25072 40.8664 0.621042 40.1492 1.21246Z" fill="#F93F19"/>
</svg>
